<svg width="24" height="24" viewBox="0 0 24 24" fill="none" xmlns="http://www.w3.org/2000/svg">
<path fill-rule="evenodd" clip-rule="evenodd" d="M20.208 12.1943C20.208 11.588 20.1536 11.0051 20.0525 10.4454H12V13.7527H16.6015C16.4032 14.8215 15.8009 15.727 14.8953 16.3333V18.4785H17.6585C19.2753 16.9901 20.208 14.7982 20.208 12.1943Z" fill="#4285F4"/>
<path fill-rule="evenodd" clip-rule="evenodd" d="M12 20.55C14.3085 20.55 16.2439 19.7844 17.6585 18.4786L14.8953 16.3333C14.1297 16.8463 13.1503 17.1494 12 17.1494C9.77308 17.1494 7.88819 15.6454 7.21585 13.6245H4.35938V15.8397C5.76624 18.634 8.65769 20.55 12 20.55Z" fill="#34A853"/>
<path fill-rule="evenodd" clip-rule="evenodd" d="M7.21608 13.6245C7.04508 13.1115 6.94792 12.5635 6.94792 12C6.94792 11.4365 7.04508 10.8885 7.21608 10.3755V8.16028H4.3596C3.78054 9.31453 3.4502 10.6203 3.4502 12C3.4502 13.3797 3.78054 14.6855 4.3596 15.8397L7.21608 13.6245Z" fill="#FBBC05"/>
<path fill-rule="evenodd" clip-rule="evenodd" d="M12 6.85052C13.2553 6.85052 14.3823 7.28191 15.2684 8.12913L17.7207 5.67684C16.24 4.29718 14.3046 3.44995 12 3.44995C8.65769 3.44995 5.76624 5.36593 4.35938 8.16022L7.21585 10.3755C7.88819 8.35454 9.77308 6.85052 12 6.85052Z" fill="#EA4335"/>
</svg>
